<svg width="166" height="134" viewBox="0 0 166 134" fill="none" xmlns="http://www.w3.org/2000/svg">
<path d="M78.805 4.78604C78.805 3.38412 79.2507 2.23286 80.1466 1.34157C81.0379 0.45028 82.1242 0 83.4007 0H16.5957C15.3191 0 14.2329 0.45028 13.3416 1.34157C12.4457 2.2375 12 3.38412 12 4.78604V18.9492C12 20.2258 12.4457 21.3121 13.3416 22.2033C14.2329 23.0993 15.3191 23.5449 16.5957 23.5449H52.0106V129.404C52.0106 130.681 52.4562 131.767 53.3522 132.658C54.2435 133.554 55.3297 134 56.6063 134H74.2186C75.6205 134 76.7718 133.554 77.6631 132.658C78.3176 132.004 78.7308 131.243 78.9072 130.379C78.8422 130.068 78.8097 129.743 78.8097 129.404V4.78604H78.805Z" fill="white"/>
<path d="M159.546 20.184C155.461 13.8661 149.718 9.14965 142.319 6.01621C134.915 2.89205 126.239 1.32764 116.286 1.32764H87.3792V22.5747H115.329C123.24 22.5747 129.047 24.5198 132.747 28.4145C136.447 32.3093 138.299 37.4435 138.299 43.8218C138.299 50.7154 136.321 55.9146 132.366 59.424C128.411 62.9335 122.729 64.6882 115.329 64.6882H87.3792V85.9399H87.7598V85.9353H116.281C126.234 85.9353 134.91 84.4034 142.314 81.3396C149.714 78.2757 155.456 73.6522 159.541 67.4596C163.626 61.2716 165.669 53.3892 165.669 43.8171C165.673 34.3843 163.626 26.502 159.546 20.184Z" fill="white"/>
<path d="M13.2904 81.248V83.96H8.82638V98H5.46638V83.96H1.00238V81.248H13.2904ZM23.2299 84.512C24.2379 84.512 25.1339 84.736 25.9179 85.184C26.7019 85.616 27.3099 86.264 27.7419 87.128C28.1899 87.976 28.4139 89 28.4139 90.2V98H25.0539V90.656C25.0539 89.6 24.7899 88.792 24.2619 88.232C23.7339 87.656 23.0139 87.368 22.1019 87.368C21.1739 87.368 20.4379 87.656 19.8939 88.232C19.3659 88.792 19.1019 89.6 19.1019 90.656V98H15.7419V80.24H19.1019V86.36C19.5339 85.784 20.1099 85.336 20.8299 85.016C21.5499 84.68 22.3499 84.512 23.2299 84.512ZM43.9691 91.064C43.9691 91.544 43.9371 91.976 43.8731 92.36H34.1531C34.2331 93.32 34.5691 94.072 35.1611 94.616C35.7531 95.16 36.4811 95.432 37.3451 95.432C38.5931 95.432 39.4811 94.896 40.0091 93.824H43.6331C43.2491 95.104 42.5131 96.16 41.4251 96.992C40.3371 97.808 39.0011 98.216 37.4171 98.216C36.1371 98.216 34.9851 97.936 33.9611 97.376C32.9531 96.8 32.1611 95.992 31.5851 94.952C31.0251 93.912 30.7451 92.712 30.7451 91.352C30.7451 89.976 31.0251 88.768 31.5851 87.728C32.1451 86.688 32.9291 85.888 33.9371 85.328C34.9451 84.768 36.1051 84.488 37.4171 84.488C38.6811 84.488 39.8091 84.76 40.8011 85.304C41.8091 85.848 42.5851 86.624 43.1291 87.632C43.6891 88.624 43.9691 89.768 43.9691 91.064ZM40.4891 90.104C40.4731 89.24 40.1611 88.552 39.5531 88.04C38.9451 87.512 38.2011 87.248 37.3211 87.248C36.4891 87.248 35.7851 87.504 35.2091 88.016C34.6491 88.512 34.3051 89.208 34.1771 90.104H40.4891Z" fill="white"/>
<path d="M90.2855 112.624C90.7175 112.016 91.3095 111.512 92.0615 111.112C92.8295 110.696 93.7015 110.488 94.6775 110.488C95.8135 110.488 96.8375 110.768 97.7495 111.328C98.6775 111.888 99.4055 112.688 99.9335 113.728C100.478 114.752 100.75 115.944 100.75 117.304C100.75 118.664 100.478 119.872 99.9335 120.928C99.4055 121.968 98.6775 122.776 97.7495 123.352C96.8375 123.928 95.8135 124.216 94.6775 124.216C93.7015 124.216 92.8375 124.016 92.0855 123.616C91.3495 123.216 90.7495 122.712 90.2855 122.104V130.336H86.9255V110.704H90.2855V112.624ZM97.3175 117.304C97.3175 116.504 97.1495 115.816 96.8135 115.24C96.4935 114.648 96.0615 114.2 95.5175 113.896C94.9895 113.592 94.4135 113.44 93.7895 113.44C93.1815 113.44 92.6055 113.6 92.0615 113.92C91.5335 114.224 91.1015 114.672 90.7655 115.264C90.4455 115.856 90.2855 116.552 90.2855 117.352C90.2855 118.152 90.4455 118.848 90.7655 119.44C91.1015 120.032 91.5335 120.488 92.0615 120.808C92.6055 121.112 93.1815 121.264 93.7895 121.264C94.4135 121.264 94.9895 121.104 95.5175 120.784C96.0615 120.464 96.4935 120.008 96.8135 119.416C97.1495 118.824 97.3175 118.12 97.3175 117.304ZM106.551 106.24V124H103.191V106.24H106.551ZM109.007 117.304C109.007 115.96 109.271 114.768 109.799 113.728C110.343 112.688 111.071 111.888 111.983 111.328C112.911 110.768 113.943 110.488 115.079 110.488C116.071 110.488 116.935 110.688 117.671 111.088C118.423 111.488 119.023 111.992 119.471 112.6V110.704H122.855V124H119.471V122.056C119.039 122.68 118.439 123.2 117.671 123.616C116.919 124.016 116.047 124.216 115.055 124.216C113.935 124.216 112.911 123.928 111.983 123.352C111.071 122.776 110.343 121.968 109.799 120.928C109.271 119.872 109.007 118.664 109.007 117.304ZM119.471 117.352C119.471 116.536 119.311 115.84 118.991 115.264C118.671 114.672 118.239 114.224 117.695 113.92C117.151 113.6 116.567 113.44 115.943 113.44C115.319 113.44 114.743 113.592 114.215 113.896C113.687 114.2 113.255 114.648 112.919 115.24C112.599 115.816 112.439 116.504 112.439 117.304C112.439 118.104 112.599 118.808 112.919 119.416C113.255 120.008 113.687 120.464 114.215 120.784C114.759 121.104 115.335 121.264 115.943 121.264C116.567 121.264 117.151 121.112 117.695 120.808C118.239 120.488 118.671 120.04 118.991 119.464C119.311 118.872 119.471 118.168 119.471 117.352ZM125.272 117.352C125.272 115.976 125.552 114.776 126.112 113.752C126.672 112.712 127.448 111.912 128.44 111.352C129.432 110.776 130.568 110.488 131.848 110.488C133.496 110.488 134.856 110.904 135.928 111.736C137.016 112.552 137.744 113.704 138.112 115.192H134.488C134.296 114.616 133.968 114.168 133.504 113.848C133.056 113.512 132.496 113.344 131.824 113.344C130.864 113.344 130.104 113.696 129.544 114.4C128.984 115.088 128.704 116.072 128.704 117.352C128.704 118.616 128.984 119.6 129.544 120.304C130.104 120.992 130.864 121.336 131.824 121.336C133.184 121.336 134.072 120.728 134.488 119.512H138.112C137.744 120.952 137.016 122.096 135.928 122.944C134.84 123.792 133.48 124.216 131.848 124.216C130.568 124.216 129.432 123.936 128.44 123.376C127.448 122.8 126.672 122 126.112 120.976C125.552 119.936 125.272 118.728 125.272 117.352ZM152.934 117.064C152.934 117.544 152.902 117.976 152.838 118.36H143.118C143.198 119.32 143.534 120.072 144.126 120.616C144.718 121.16 145.446 121.432 146.31 121.432C147.558 121.432 148.446 120.896 148.974 119.824H152.598C152.214 121.104 151.478 122.16 150.39 122.992C149.302 123.808 147.966 124.216 146.382 124.216C145.102 124.216 143.95 123.936 142.926 123.376C141.918 122.8 141.126 121.992 140.55 120.952C139.99 119.912 139.71 118.712 139.71 117.352C139.71 115.976 139.99 114.768 140.55 113.728C141.11 112.688 141.894 111.888 142.902 111.328C143.91 110.768 145.07 110.488 146.382 110.488C147.646 110.488 148.774 110.76 149.766 111.304C150.774 111.848 151.55 112.624 152.094 113.632C152.654 114.624 152.934 115.768 152.934 117.064ZM149.454 116.104C149.438 115.24 149.126 114.552 148.518 114.04C147.91 113.512 147.166 113.248 146.286 113.248C145.454 113.248 144.75 113.504 144.174 114.016C143.614 114.512 143.27 115.208 143.142 116.104H149.454Z" fill="white"/>
</svg>
