<?xml version="1.0" encoding="utf-8"?>
<!-- Generator: Adobe Illustrator 23.0.5, SVG Export Plug-In . SVG Version: 6.00 Build 0)  -->
<svg version="1.1" id="Layer_1" xmlns="http://www.w3.org/2000/svg" xmlns:xlink="http://www.w3.org/1999/xlink" x="0px" y="0px"
	 viewBox="0 0 1075 1075" style="enable-background:new 0 0 1075 1075;" xml:space="preserve">
<style type="text/css">
	.st0{fill:#224F74;}
	.st1{fill:#1E4B6C;}
</style>
<path class="st0" d="M526.41,348.23c0-3.02,0.96-5.5,2.89-7.42c1.92-1.92,4.26-2.89,7.01-2.89H392.4c-2.75,0-5.09,0.97-7.01,2.89
	c-1.93,1.93-2.89,4.4-2.89,7.42v30.51c0,2.75,0.96,5.09,2.89,7.01c1.92,1.93,4.26,2.89,7.01,2.89h76.29v228.04
	c0,2.75,0.96,5.09,2.89,7.01c1.92,1.93,4.26,2.89,7.01,2.89h37.94c3.02,0,5.5-0.96,7.42-2.89c1.41-1.41,2.3-3.05,2.68-4.91
	c-0.14-0.67-0.21-1.37-0.21-2.1V348.23z"/>
<path class="st1" d="M700.34,381.4c-8.8-13.61-21.17-23.77-37.11-30.52c-15.95-6.73-34.64-10.1-56.08-10.1h-62.27v45.77h60.21
	c17.04,0,29.55,4.19,37.52,12.58c7.97,8.39,11.96,19.45,11.96,33.19c0,14.85-4.26,26.05-12.78,33.61
	c-8.52,7.56-20.76,11.34-36.7,11.34h-60.21v45.78h0.82v-0.01h61.44c21.44,0,40.13-3.3,56.08-9.9c15.94-6.6,28.31-16.56,37.11-29.9
	c8.8-13.33,13.2-30.31,13.2-50.93C713.54,411.99,709.13,395.01,700.34,381.4z"/>
</svg>
