<svg width="29" height="31" viewBox="0 0 29 31" fill="none" xmlns="http://www.w3.org/2000/svg">
<path d="M10.0569 28.4564V23.8216C10.0569 22.6384 11.0231 21.6793 12.2149 21.6793H16.5715C17.1439 21.6793 17.6927 21.905 18.0974 22.3067C18.5021 22.7085 18.7295 23.2534 18.7295 23.8216V28.4564C18.7259 28.9483 18.9202 29.4213 19.2693 29.7704C19.6184 30.1195 20.0934 30.3158 20.5889 30.3158H23.5612C24.9493 30.3194 26.2819 29.7744 27.2648 28.8012C28.2476 27.828 28.8 26.5066 28.8 25.1285V11.9245C28.8 10.8113 28.3029 9.75538 27.4428 9.04118L17.3316 1.02448C15.5727 -0.381128 13.0526 -0.335744 11.3463 1.13226L1.46579 9.04118C0.564996 9.73433 0.0266056 10.7934 0 11.9245V25.115C0 27.9873 2.3455 30.3158 5.23883 30.3158H8.14326C9.17239 30.3158 10.0088 29.4915 10.0162 28.4699L10.0569 28.4564Z" fill="#1E4B6C"/>
</svg>
