<svg width="30" height="30" viewBox="0 0 30 30" fill="none" xmlns="http://www.w3.org/2000/svg">
<path d="M14.976 0C23.2428 0 29.952 6.70925 29.952 14.976C29.952 23.2577 23.2428 29.952 14.976 29.952C6.69427 29.952 0 23.2577 0 14.976C0 6.70925 6.69427 0 14.976 0ZM20.7418 10.0489C20.9065 9.52474 20.4273 9.03053 19.9031 9.19526L12.2354 11.5914C11.9209 11.6963 11.6663 11.9359 11.5764 12.2504L9.18029 19.9331C9.01555 20.4422 9.50976 20.9364 10.0189 20.7717L17.6567 18.3756C17.9712 18.2857 18.2258 18.0311 18.3156 17.7166L20.7418 10.0489Z" fill="#AEAEAE"/>
</svg>
