<svg width="26" height="25" viewBox="0 0 26 25" fill="none" xmlns="http://www.w3.org/2000/svg">
<path d="M11.6764 0C14.6427 0 17.0777 2.30989 17.2144 5.20446L17.2204 5.46134V11.3532L9.71153 11.3532C9.17339 11.3532 8.74788 11.7714 8.74788 12.3003C8.74788 12.7739 9.10543 13.1751 9.57952 13.2387L9.71153 13.2474L17.2204 13.2474V19.127C17.2204 22.0545 14.8703 24.4596 11.9137 24.5947L11.6513 24.6006H5.5566C2.57806 24.6006 0.14278 22.2907 0.00605354 19.3962L-3.83836e-07 19.1393V5.47364C-3.83836e-07 2.53422 2.36199 0.140344 5.30772 0.00595091L5.56911 0L11.6764 0ZM20.345 8.05695C20.6804 7.71031 21.209 7.67879 21.5796 7.95317L21.6857 8.04465L25.2774 11.624C25.4619 11.8086 25.5603 12.0423 25.5603 12.3006C25.5603 12.4974 25.4973 12.6942 25.3777 12.8532L25.2774 12.9648L21.6857 16.5442C21.5012 16.7287 21.2552 16.8271 21.0215 16.8271C20.7755 16.8271 20.5295 16.7287 20.345 16.5442C20.0095 16.2087 19.979 15.6801 20.2535 15.3095L20.345 15.2034L22.313 13.2477H17.2207V11.3534H22.313L20.345 9.39769C19.976 9.02868 19.976 8.42596 20.345 8.05695Z" fill="white"/>
</svg>
