<svg width="16" height="17" viewBox="0 0 16 17" fill="none" xmlns="http://www.w3.org/2000/svg">
<path fill-rule="evenodd" clip-rule="evenodd" d="M7.68921 0C11.9291 0 15.3779 3.44876 15.3779 7.68866C15.3779 9.68903 14.6102 11.5135 13.354 12.8827L15.8259 15.3494C16.0572 15.5808 16.058 15.955 15.8266 16.1864C15.7114 16.3032 15.559 16.3609 15.4074 16.3609C15.2566 16.3609 15.105 16.3032 14.9889 16.188L12.4872 13.6932C11.1712 14.7471 9.50255 15.3781 7.68921 15.3781C3.44931 15.3781 -0.000244141 11.9286 -0.000244141 7.68866C-0.000244141 3.44876 3.44931 0 7.68921 0ZM7.68921 1.18433C4.10227 1.18433 1.18408 4.10172 1.18408 7.68866C1.18408 11.2756 4.10227 14.1938 7.68921 14.1938C11.2754 14.1938 14.1935 11.2756 14.1935 7.68866C14.1935 4.10172 11.2754 1.18433 7.68921 1.18433Z" fill="#9BA6AE"/>
</svg>
