<svg width="24" height="24" viewBox="0 0 24 24" fill="none" xmlns="http://www.w3.org/2000/svg">
<path d="M12.7607 0C13.6682 0 14.4898 0.504 14.9436 1.248C15.1643 1.608 15.3115 2.052 15.2747 2.52C15.2502 2.88 15.3605 3.24 15.5567 3.576C16.1822 4.596 17.568 4.98 18.6471 4.404C19.8612 3.708 21.3942 4.128 22.0932 5.316L22.9148 6.732C23.6261 7.92 23.2337 9.444 22.0073 10.128C20.9649 10.74 20.597 12.096 21.2225 13.128C21.4187 13.452 21.6394 13.728 21.9828 13.896C22.412 14.124 22.7432 14.484 22.9762 14.844C23.4299 15.588 23.3931 16.5 22.9516 17.304L22.0932 18.744C21.6394 19.512 20.7933 19.992 19.9226 19.992C19.4933 19.992 19.0151 19.872 18.6226 19.632C18.3038 19.428 17.9359 19.356 17.5434 19.356C16.3293 19.356 15.3115 20.352 15.2747 21.54C15.2747 22.92 14.1464 24 12.7361 24H11.0683C9.64575 24 8.5175 22.92 8.5175 21.54C8.49298 20.352 7.47511 19.356 6.26102 19.356C5.85633 19.356 5.48842 19.428 5.18184 19.632C4.7894 19.872 4.29886 19.992 3.88191 19.992C2.99893 19.992 2.15275 19.512 1.699 18.744L0.852824 17.304C0.399075 16.524 0.374548 15.588 0.828297 14.844C1.02451 14.484 1.39242 14.124 1.80938 13.896C2.15275 13.728 2.3735 13.452 2.58198 13.128C3.19515 12.096 2.82725 10.74 1.78485 10.128C0.570764 9.444 0.178332 7.92 0.877351 6.732L1.699 5.316C2.41029 4.128 3.93096 3.708 5.15731 4.404C6.22423 4.98 7.61001 4.596 8.23544 3.576C8.43166 3.24 8.54203 2.88 8.5175 2.52C8.49298 2.052 8.62788 1.608 8.86088 1.248C9.31463 0.504 10.1363 0.024 11.0315 0H12.7607ZM11.9145 8.616C9.98912 8.616 8.43166 10.128 8.43166 12.012C8.43166 13.896 9.98912 15.396 11.9145 15.396C13.8399 15.396 15.3605 13.896 15.3605 12.012C15.3605 10.128 13.8399 8.616 11.9145 8.616Z" fill="#1E4B6C"/>
</svg>
